<mxfile host="app.diagrams.net" modified="2023-10-05T07:27:34.575Z" agent="Mozilla/5.0 (Windows NT 10.0; Win64; x64) AppleWebKit/537.36 (KHTML, like Gecko) Chrome/117.0.0.0 Safari/537.36 Edg/117.0.2045.47" version="21.8.1" etag="bkz0B7qCc3auBlwpNlbI" type="github">
  <diagram name="第 1 页" id="NlS-BuFe-K1sIvMtPJrf">
    <mxGraphModel>
      <root>
        <mxCell id="0" />
        <mxCell id="1" parent="0" />
      </root>
    </mxGraphModel>
  </diagram>
</mxfile>
